<?xml version="1.0" standalone="no"?>
<!DOCTYPE svg PUBLIC "-//W3C//DTD SVG 20010904//EN"
 "http://www.w3.org/TR/2001/REC-SVG-20010904/DTD/svg10.dtd">
<svg version="1.0" xmlns="http://www.w3.org/2000/svg"
 width="315.000000pt" height="315.000000pt" viewBox="0 0 315.000000 315.000000"
 preserveAspectRatio="xMidYMid meet">
<metadata>
Created by potrace 1.11, written by Peter Selinger 2001-2013
</metadata>
<g transform="translate(0.000000,315.000000) scale(0.100000,-0.100000)"
fill="#000000" stroke="none">
<path d="M555 3142 c-67 -11 -144 -36 -207 -67 -40 -19 -79 -35 -85 -35 -7 0
-13 -5 -13 -11 0 -6 -22 -32 -48 -58 -71 -68 -111 -124 -143 -200 -56 -133
-55 -112 -54 -1211 2 -1137 -3 -1070 75 -1219 80 -153 212 -261 382 -312 l73
-22 1040 0 c780 0 1051 3 1085 12 68 18 153 54 174 74 11 9 26 17 33 17 7 0
13 4 13 8 0 4 14 16 30 26 43 25 131 134 167 208 28 55 37 83 60 173 3 11 6
477 7 1035 2 905 0 1023 -14 1090 -30 136 -101 256 -205 344 -37 31 -70 56
-75 56 -5 0 -15 6 -22 13 -14 14 -141 61 -198 73 -34 8 -2034 13 -2075 6z
m-117 -1345 c47 -14 122 -71 122 -93 0 -7 -19 -19 -41 -26 -38 -11 -45 -10
-80 10 -48 28 -102 29 -129 2 -11 -11 -20 -26 -20 -34 0 -18 38 -46 62 -46 20
0 158 -44 188 -60 75 -40 40 -205 -49 -225 -9 -2 -32 -9 -51 -14 -44 -14 -127
-14 -135 -1 -3 6 -17 10 -31 10 -59 0 -135 78 -96 99 28 15 92 24 92 13 0 -13
46 -31 92 -35 49 -5 101 24 96 56 -3 23 -39 45 -86 53 -123 20 -175 51 -192
115 -12 43 7 116 29 111 7 -1 10 1 7 6 -10 16 10 30 69 51 70 24 95 25 153 8z
m598 -7 c28 -13 54 -35 72 -62 27 -41 27 -44 30 -223 l4 -182 -32 -7 c-90 -18
-94 -11 -92 159 1 179 -17 215 -108 215 -50 0 -84 -22 -101 -67 -5 -13 -9 -90
-9 -170 l0 -145 -55 4 c-30 3 -58 8 -61 11 -4 4 -6 106 -5 228 1 242 3 249 60
243 14 -1 34 -2 44 -3 10 -1 17 -9 17 -21 0 -22 15 -27 26 -9 12 19 88 49 127
49 21 0 58 -9 83 -20z m532 5 c107 -32 132 -94 132 -327 l0 -158 -61 0 c-52 0
-62 3 -66 20 -5 19 -23 29 -23 12 0 -17 -69 -37 -130 -37 -111 0 -180 53 -180
138 0 97 74 146 232 154 70 4 98 10 98 19 0 30 -21 64 -47 77 -32 15 -54 15
-128 -3 -50 -12 -55 -11 -85 10 -37 26 -35 38 10 64 75 44 165 55 248 31z
m1127 -9 c49 -20 91 -79 100 -140 4 -22 5 -106 3 -186 l-3 -145 -39 -3 c-52
-4 -86 5 -86 23 0 17 -16 20 -25 4 -10 -15 -52 -29 -109 -35 -60 -6 -123 13
-163 51 -24 22 -28 33 -27 80 0 73 17 100 81 132 43 20 73 27 149 31 91 5 94
5 94 29 0 29 -41 73 -70 74 -11 1 -26 2 -32 3 -7 0 -38 -5 -69 -13 -50 -12
-59 -12 -82 4 -15 9 -27 26 -27 36 0 21 63 58 120 70 50 11 138 4 185 -15z
m-779 8 c30 -5 59 -51 44 -68 -5 -8 -7 -21 -4 -30 6 -15 7 -15 19 1 11 15 13
15 24 -6 22 -41 -18 -99 -61 -87 -33 8 -135 161 -120 179 12 13 59 19 98 11z
m61 -286 c10 -18 18 -43 20 -56 2 -25 -40 -95 -52 -84 -3 4 -6 2 -5 -3 5 -22
-1 -32 -26 -44 -27 -12 -90 -6 -100 10 -7 12 25 76 42 83 8 3 14 10 14 16 0
11 9 24 43 61 9 10 17 23 17 28 0 8 8 13 27 20 1 1 10 -14 20 -31z"/>
<path d="M1422 1513 c-19 -6 -38 -15 -42 -20 -12 -12 -15 -45 -6 -70 14 -43
115 -50 169 -11 23 17 27 26 27 68 l0 48 -57 -2 c-31 0 -72 -6 -91 -13z"/>
<path d="M2532 1516 c-58 -15 -77 -48 -56 -93 18 -35 58 -47 119 -33 56 13 75
35 75 91 l0 47 -47 -1 c-27 0 -68 -5 -91 -11z"/>
</g>
</svg>
