<svg xmlns="http://www.w3.org/2000/svg" width="58.946" height="36.513" viewBox="0 0 58.946 36.513"><defs><style>.a{fill:none;}.a,.b{stroke:#0dd6ff;stroke-miterlimit:10;stroke-width:1.5px;}.b{fill:#fff;}</style></defs><g transform="translate(-1.799 -1.75)"><g transform="translate(38.083 5.838)"><circle class="a" cx="3.461" cy="3.461" r="3.461" transform="translate(1.737)"/><g transform="translate(0 7.848)"><path class="b" d="M247.73,85.653h10.452l-.048-3.575a2.371,2.371,0,0,0-2.225-2.355l-.116,0h-1.265a.427.427,0,0,1-.422.371h-2.358a.426.426,0,0,1-.422-.371h-1.265l-.116,0A2.361,2.361,0,0,0,247.73,82.1Z" transform="translate(-247.73 -79.72)"/></g></g><rect class="a" width="17.828" height="6.865" transform="translate(2.569 36.643) rotate(-88.424)"/><g transform="translate(20.845 5.838)"><circle class="a" cx="3.461" cy="3.461" r="3.461" transform="translate(1.792)"/><g transform="translate(0 7.848)"><path class="b" d="M139.182,85.653H128.73l.046-3.575A2.371,2.371,0,0,1,131,79.723l.116,0h1.265a.427.427,0,0,0,.422.371h2.358a.426.426,0,0,0,.422-.371h1.265l.116,0A2.361,2.361,0,0,1,139.18,82.1v3.553Z" transform="translate(-128.73 -79.72)"/></g></g><path class="b" d="M94.574,142.289a13.12,13.12,0,0,1-8.022.9L72.357,139.2a6.39,6.39,0,0,0-4.769.521l-1.218.652.326-11.848a12.72,12.72,0,0,1,12.92-.69l.852.442a11.174,11.174,0,0,0,4.8,1.24l8.367.23a5.073,5.073,0,0,1,4.822,4.043L86,133.448a1.157,1.157,0,0,0-.064,2.313l13.753.378h.033a1.158,1.158,0,0,0,1.156-1.126,7.333,7.333,0,0,0-.112-1.5l9.294-4.392.028-.013a3.535,3.535,0,0,1,4,.559Z" transform="translate(-54.558 -105.95)"/><g transform="translate(28.198 2.5)"><circle class="a" cx="4.299" cy="4.299" r="4.299" transform="translate(2.226 0)"/><g transform="translate(0 9.749)"><path class="b" d="M192.472,77.17H179.49l.058-4.441a2.945,2.945,0,0,1,2.764-2.926c.048,0,.1,0,.145,0h1.57a.53.53,0,0,0,.524.461h2.929A.53.53,0,0,0,188,69.8h1.57l.145,0a2.932,2.932,0,0,1,2.752,2.952Z" transform="translate(-179.49 -69.8)"/></g></g></g></svg>