<svg xmlns="http://www.w3.org/2000/svg" width="36.047" height="36.046" viewBox="0 0 36.047 36.046"><defs><style>.a{fill:#3c5a99;}.b{fill:#fff;fill-rule:evenodd;}</style></defs><g transform="translate(0 0)"><path class="a" d="M149.344,498.343a18.023,18.023,0,1,1,18.024-18.023A18.044,18.044,0,0,1,149.344,498.343Z" transform="translate(-131.32 -462.297)"/></g><g transform="translate(12.986 7.22)"><path class="b" d="M153.2,484.119v10.446a.272.272,0,0,0,.272.272h3.879a.272.272,0,0,0,.272-.272V483.949h2.813a.272.272,0,0,0,.271-.249l.271-3.2a.272.272,0,0,0-.271-.3h-3.083v-2.269a.963.963,0,0,1,.963-.963h2.168a.272.272,0,0,0,.272-.271v-3.2a.272.272,0,0,0-.272-.272h-3.662a3.891,3.891,0,0,0-3.892,3.892v3.083h-1.939a.272.272,0,0,0-.272.272v3.2a.272.272,0,0,0,.272.272H153.2Z" transform="translate(-150.984 -473.231)"/></g></svg>