<?xml version="1.0" encoding="utf-8"?>
<!-- Generator: Adobe Illustrator 24.0.0, SVG Export Plug-In . SVG Version: 6.00 Build 0)  -->
<svg version="1.1" id="Layer_1" xmlns="http://www.w3.org/2000/svg" xmlns:xlink="http://www.w3.org/1999/xlink" x="0px" y="0px"
	 viewBox="0 0 58 58" style="enable-background:new 0 0 58 58;" xml:space="preserve">
<style type="text/css">
	.st0{fill:#EA0000;}
</style>
<g>
	<path class="st0" d="M49.1,41.8H22.2c-1.8,0-3.3-1.1-3.9-2.8L7.1,2.7H1.3C0.6,2.7,0,2.1,0,1.3S0.6,0,1.3,0H9l11.8,38.2
		c0.2,0.6,0.7,0.9,1.3,0.9H49c0.6,0,1.2-0.4,1.3-1l4.9-19.5c0.2-0.7,0.9-1.2,1.6-1c0.7,0.2,1.2,0.9,1,1.6l-4.9,19.5
		C52.6,40.6,51,41.8,49.1,41.8z"/>
	<path class="st0" d="M27,58c-3.7,0-6.7-3-6.7-6.7s3-6.7,6.7-6.7s6.7,3,6.7,6.7S30.7,58,27,58z M27,47.2c-2.2,0-4,1.8-4,4s1.8,4,4,4
		s4-1.8,4-4S29.2,47.2,27,47.2z"/>
	<path class="st0" d="M47.2,58c-3.7,0-6.7-3-6.7-6.7s3-6.7,6.7-6.7s6.7,3,6.7,6.7C54,55,50.9,58,47.2,58z M47.2,47.2
		c-2.2,0-4,1.8-4,4s1.8,4,4,4s4-1.8,4-4S49.4,47.2,47.2,47.2z"/>
	<path class="st0" d="M55.3,25.6H22.9c-0.7,0-1.3-0.6-1.3-1.3s0.6-1.3,1.3-1.3h32.4c0.7,0,1.3,0.6,1.3,1.3S56,25.6,55.3,25.6z"/>
	<path class="st0" d="M47.2,25.6c-0.5,0-1-0.3-1.3-0.8c-0.3-0.7,0.1-1.5,0.8-1.8l3.9-1.6c0.4-0.1,0.6-0.4,0.8-0.8
		c0.1-0.4,0.1-0.8-0.1-1.1l-5.5-10c-0.3-0.6-1.1-0.9-1.7-0.6l-11.3,4.7c-0.3,0.1-0.6,0.4-0.7,0.8c-0.1,0.4-0.1,0.7,0.1,1.1l4.1,8.2
		c0.3,0.7,0.1,1.5-0.6,1.8c-0.7,0.3-1.5,0.1-1.8-0.6l-4.1-8.2c-0.5-1-0.6-2.2-0.2-3.2s1.2-1.9,2.2-2.3l11.3-4.7
		c1.9-0.8,4.1,0,5.1,1.8l5.5,10c0.6,1,0.6,2.2,0.3,3.3c-0.4,1.1-1.2,2-2.3,2.4l-3.9,1.6C47.5,25.6,47.4,25.6,47.2,25.6z"/>
	<path class="st0" d="M22.9,25.6c-0.7,0-1.3-0.6-1.3-1.3v-6.7c0-1.5,1.2-2.7,2.7-2.7H31c0.7,0,1.3,0.6,1.3,1.3s-0.6,1.3-1.3,1.3
		h-6.7v6.7C24.3,25,23.7,25.6,22.9,25.6z"/>
	<path class="st0" d="M27,17.5c-0.7,0-1.3-0.6-1.3-1.3V8.1c0-1.5,1.2-2.7,2.7-2.7h6.7c1.5,0,2.7,1.2,2.7,2.7v1.3
		c0,0.7-0.6,1.3-1.3,1.3s-1.3-0.6-1.3-1.3V8.1h-6.7v8.1C28.3,16.9,27.7,17.5,27,17.5z"/>
</g>
</svg>
