<?xml version="1.0" encoding="utf-8"?>
<!-- Generator: Adobe Illustrator 24.0.0, SVG Export Plug-In . SVG Version: 6.00 Build 0)  -->
<svg version="1.1" id="Layer_1" xmlns="http://www.w3.org/2000/svg" xmlns:xlink="http://www.w3.org/1999/xlink" x="0px" y="0px"
	 viewBox="0 0 58 42.5" style="enable-background:new 0 0 58 42.5;" xml:space="preserve">
<style type="text/css">
	.st0{fill:#EA0000;}
</style>
<g>
	<path class="st0" d="M51.6,42.5H6.4c-3.6,0-6.4-2.9-6.4-6.4V6.4C0,2.9,2.9,0,6.4,0h45.1C55.1,0,58,2.9,58,6.4V36
		C58,39.6,55.1,42.5,51.6,42.5z M6.4,2.6c-2.1,0-3.9,1.7-3.9,3.9v29.6c0,2.1,1.7,3.9,3.9,3.9h45.1c2.1,0,3.9-1.7,3.9-3.9V6.4
		c0-2.1-1.7-3.9-3.9-3.9L6.4,2.6L6.4,2.6z"/>
	<path class="st0" d="M56.7,14.2H1.3c-0.7,0-1.3-0.6-1.3-1.3s0.6-1.3,1.3-1.3h55.4c0.7,0,1.3,0.6,1.3,1.3
		C58,13.6,57.4,14.2,56.7,14.2z"/>
	<path class="st0" d="M49,30.9H29.6c-0.7,0-1.3-0.6-1.3-1.3c0-0.7,0.6-1.3,1.3-1.3H49c0.7,0,1.3,0.6,1.3,1.3
		C50.3,30.4,49.7,30.9,49,30.9z"/>
</g>
</svg>
