<?xml version="1.0" encoding="utf-8"?>
<!-- Generator: Adobe Illustrator 24.0.0, SVG Export Plug-In . SVG Version: 6.00 Build 0)  -->
<svg version="1.1" id="Layer_1" xmlns="http://www.w3.org/2000/svg" xmlns:xlink="http://www.w3.org/1999/xlink" x="0px" y="0px"
	 viewBox="0 0 56.5 58" style="enable-background:new 0 0 56.5 58;" xml:space="preserve">
<style type="text/css">
	.st0{fill:#EA0000;}
</style>
<g>
	<path class="st0" d="M28.3,36.3c-6.9,0-11.8-8.3-13-11.8c-0.1,0-0.1-0.1-0.2-0.1c-0.5-0.3-0.8-0.5-1-0.8c-1.7-3-2.1-5.3-1.3-7.1
		c0.4-0.8,1-1.3,1.5-1.6c0-1.3,0.1-3.7,0.7-6.1c0,0,2.5-8.8,13.3-8.8C39,0,41.5,8.8,41.5,8.9c0.6,2.4,0.7,4.8,0.7,6.1
		c0.5,0.3,1.1,0.8,1.5,1.6c0.8,1.7,0.4,4.1-1.3,7.1c-0.2,0.4-0.5,0.5-1,0.8c-0.1,0-0.1,0.1-0.2,0.1C40.1,28,35.2,36.3,28.3,36.3z
		 M16.3,22.1c0.1,0,0.1,0.1,0.2,0.1c0.6,0.4,1,0.6,1.2,1.2c0.6,2.2,4.9,10.3,10.6,10.3s10-8.1,10.6-10.3c0.2-0.6,0.6-0.9,1.2-1.2
		c0.1,0,0.1-0.1,0.2-0.1c1.5-2.8,1.3-4,1.1-4.4c-0.2-0.5-0.6-0.6-0.7-0.6c-0.6-0.1-1.1-0.7-1-1.4c0,0,0.2-3.2-0.6-6.2
		c-0.1-0.3-2-6.9-10.7-6.9S17.7,9.5,17.7,9.5c-0.8,2.9-0.6,6.1-0.6,6.2c0,0.7-0.4,1.2-1.1,1.4c0,0-0.5,0.1-0.7,0.6
		C15,18.1,14.8,19.3,16.3,22.1z"/>
	<path class="st0" d="M28.3,58C12.5,58,1.2,55.6,1,55.6c-0.6-0.1-1.1-0.7-1-1.3C0.6,41.7,8.4,37.8,14.3,36c4.5-1.4,6.9-3.7,6.9-3.8
		c0.5-0.5,1.3-0.5,1.9,0c0.5,0.5,0.5,1.3,0,1.9c-0.1,0.1-2.8,2.8-8,4.4C9.4,40.2,3.6,43.4,2.7,53.2c3.2,0.6,12.9,2.2,25.6,2.2
		c12.6,0,22.4-1.6,25.6-2.2c-0.9-9.8-6.7-13-12.3-14.8c-5.1-1.6-7.9-4.3-8-4.4c-0.5-0.5-0.5-1.3,0-1.9c0.5-0.5,1.3-0.5,1.9,0
		c0,0,2.4,2.3,6.9,3.8c5.8,1.8,13.7,5.7,14.3,18.3c0,0.6-0.4,1.2-1,1.3C55.4,55.6,44,58,28.3,58z"/>
</g>
</svg>
