<?xml version="1.0" encoding="utf-8"?>
<!-- Generator: Adobe Illustrator 24.0.0, SVG Export Plug-In . SVG Version: 6.00 Build 0)  -->
<svg version="1.1" id="Layer_1" xmlns="http://www.w3.org/2000/svg" xmlns:xlink="http://www.w3.org/1999/xlink" x="0px" y="0px"
	 viewBox="0 0 58 56.5" style="enable-background:new 0 0 58 56.5;" xml:space="preserve">
<style type="text/css">
	.st0{fill:#EA0000;}
</style>
<g>
	<path class="st0" d="M11.9,28.3c0-0.8,0.7-1.5,1.5-1.5h43.1c0.8,0,1.5,0.7,1.5,1.5s-0.7,1.5-1.5,1.5H13.4
		C12.6,29.7,11.9,29.1,11.9,28.3z"/>
	<path class="st0" d="M38.2,45.1c0-0.4,0.1-0.8,0.4-1.1l15.8-15.8L38.6,12.5c-0.6-0.6-0.6-1.5,0-2.1s1.5-0.6,2.1,0l16.8,16.8
		c0.6,0.6,0.6,1.5,0,2.1L40.7,46.1c-0.6,0.6-1.5,0.6-2.1,0C38.3,45.8,38.2,45.5,38.2,45.1z"/>
	<path class="st0" d="M0,49.1V7.4C0,3.3,3.3,0,7.4,0h8.9c0.8,0,1.5,0.7,1.5,1.5S17.2,3,16.4,3h-9C5,3,3,5,3,7.4V49
		c0,2.5,2,4.5,4.5,4.5h8.9c0.8,0,1.5,0.7,1.5,1.5s-0.7,1.5-1.5,1.5h-9C3.3,56.5,0,53.2,0,49.1z"/>
</g>
</svg>
