<svg xmlns="http://www.w3.org/2000/svg" xmlns:xlink="http://www.w3.org/1999/xlink" width="35.811" height="35.812" viewBox="0 0 35.811 35.812"><defs><style>.a{fill:#fff;}.b{fill:url(#a);}</style><linearGradient id="a" x1="0.096" y1="0.844" x2="1.336" y2="-0.212" gradientUnits="objectBoundingBox"><stop offset="0.001" stop-color="#fbe18a"/><stop offset="0.209" stop-color="#fcbb45"/><stop offset="0.376" stop-color="#f75274"/><stop offset="0.524" stop-color="#d53692"/><stop offset="0.739" stop-color="#8f39ce"/><stop offset="1" stop-color="#5b4fe9"/></linearGradient></defs><circle class="a" cx="15.684" cy="15.684" r="15.684" transform="translate(2.208 2.07)"/><path class="b" d="M231.308,498.792a17.906,17.906,0,1,1,17.906-17.906A17.926,17.926,0,0,1,231.308,498.792Zm6.038-25.171a1.325,1.325,0,1,0,1.325,1.325A1.325,1.325,0,0,0,237.346,473.622Zm-5.891,1.7a5.566,5.566,0,1,0,5.566,5.566A5.572,5.572,0,0,0,231.456,475.321Zm0,9.132a3.565,3.565,0,1,1,3.565-3.565A3.569,3.569,0,0,1,231.456,484.452Zm11.231-8.191a6.789,6.789,0,0,0-6.789-6.789h-8.96a6.789,6.789,0,0,0-6.789,6.789v8.961a6.789,6.789,0,0,0,6.789,6.789h8.96a6.789,6.789,0,0,0,6.789-6.789Zm-2.126,8.961a4.662,4.662,0,0,1-4.663,4.662h-8.96a4.662,4.662,0,0,1-4.662-4.662v-8.961a4.662,4.662,0,0,1,4.662-4.662h8.96a4.662,4.662,0,0,1,4.663,4.662Z" transform="translate(-213.403 -462.981)"/></svg>