<?xml version="1.0" encoding="utf-8"?>
<!-- Generator: Adobe Illustrator 20.0.0, SVG Export Plug-In . SVG Version: 6.00 Build 0)  -->
<svg version="1.1" id="Layer_1" xmlns="http://www.w3.org/2000/svg" xmlns:xlink="http://www.w3.org/1999/xlink" x="0px" y="0px"
	 viewBox="0 0 84 55" style="enable-background:new 0 0 84 55;" xml:space="preserve">
<style type="text/css">
	.st0{fill:#EAEAEA;}
	.st1{fill:#838383;}
	.st2{fill:#FFFFFF;}
</style>
<g>
	<path class="st0" d="M76.9,0h-70C3,0,0,3,0,6.4v7.3v8.9v25.9C0,52,3,55,6.9,55h70.2c3.7,0,6.9-3,6.9-6.4V22.7v-8.9V6.4
		C83.8,3,80.8,0,76.9,0z M6.9,3.7h70.2c1.7,0,3,1.4,3,3v5.5H3.7V6.4C3.7,5,5.2,3.7,6.9,3.7z M80.1,20.8H3.7v-5.3h76.1v5.3H80.1z
		 M76.9,51.3h-70c-1.7,0-3-1.4-3-3V24.5h76.1v23.8C80.1,49.9,78.6,51.3,76.9,51.3z"/>
	<g>
		<g>
			<path class="st0" d="M41,32.9h-2.1c-0.6,0-1.1,0.2-1.4,0.8l-4,9.2h2.8c0,0,0.5-1.2,0.6-1.5c0.3,0,3.1,0,3.4,0
				c0.1,0.3,0.3,1.5,0.3,1.5h2.5L41,32.9z M37.7,39.3c0.2-0.6,1.1-2.8,1.1-2.8s0.2-0.6,0.3-0.9l0.2,0.9c0,0,0.5,2.4,0.6,2.9H37.7z
				 M33.7,39.6c0,2.1-1.8,3.4-4.7,3.4c-1.2,0-2.3-0.3-2.9-0.6l0.3-2.2l0.3,0.1c0.9,0.3,1.4,0.6,2.6,0.6c0.8,0,1.6-0.3,1.6-0.9
				c0-0.4-0.3-0.8-1.4-1.2c-1.1-0.5-2.3-1.3-2.3-2.7c0-1.9,1.8-3.3,4.6-3.3c1.1,0,1.8,0.2,2.4,0.4l-0.3,2.1l-0.3-0.1
				c-0.5-0.2-1.1-0.4-2-0.4c-1.1,0-1.5,0.4-1.5,0.8c0,0.5,0.6,0.8,1.5,1.2C33,37.6,33.7,38.5,33.7,39.6z M10.1,33v-0.2h4.1
				c0.6,0,1.1,0.2,1.2,0.8l0.9,4.4C15.4,35.7,13.3,33.8,10.1,33z M22.3,32.9l-4.2,10h-2.8l-2.5-8.3c1.7,1.1,3.2,2.9,3.7,4.1l0.3,1.1
				l2.6-6.8H22.3L22.3,32.9z M23.3,32.9H26l-1.7,10h-2.7L23.3,32.9z"/>
		</g>
		<g>
			<circle class="st0" cx="66.3" cy="37.9" r="7.7"/>
			<path class="st1" d="M72.9,42.1c0-0.1,0.1-0.3,0.3-0.3c0.1,0,0.3,0.1,0.3,0.3s-0.1,0.3-0.3,0.3C73,42.4,72.9,42.3,72.9,42.1z
				 M73.1,42.4c0.1,0,0.2-0.1,0.2-0.2s-0.1-0.2-0.2-0.2s-0.2,0.1-0.2,0.2S73,42.4,73.1,42.4z M73.1,42.3L73.1,42.3L73,42.1h0.1h0.1
				c0,0,0,0,0,0.1C73.2,42.1,73.2,42.2,73.1,42.3L73.1,42.3L73.1,42.3L73.1,42.3L73.1,42.3L73.1,42.3L73.1,42.3z M73.1,42.1
				L73.1,42.1L73.1,42.1C73.2,42.1,73.2,42.1,73.1,42.1C73.2,42.1,73.2,42.1,73.1,42.1C73.1,42.1,73.1,42.1,73.1,42.1L73.1,42.1
				L73.1,42.1z"/>
			<circle class="st0" cx="55.8" cy="37.9" r="7.7"/>
			<g>
				<g>
					<polygon class="st2" points="52.1,39.5 51.3,39.5 51.8,36.5 50.8,39.5 50.1,39.5 50.1,36.5 49.6,39.5 48.8,39.5 49.5,35.6 
						50.7,35.6 50.7,38 51.5,35.6 52.8,35.6 					"/>
					<path class="st2" d="M54.2,38.1c-0.1,0-0.1,0-0.2,0c-0.5,0-0.7,0.1-0.7,0.5c0,0.2,0.1,0.3,0.3,0.3
						C53.9,38.9,54.2,38.5,54.2,38.1z M54.8,39.5c-0.1,0-0.7,0-0.7,0v-0.3c-0.2,0.3-0.5,0.4-0.9,0.4c-0.5,0-0.8-0.3-0.8-0.9
						c0-0.8,0.5-1.2,1.4-1.2c0.1,0,0.2,0,0.3,0c0-0.1,0-0.1,0-0.2c0-0.2-0.1-0.3-0.5-0.3c-0.4,0-0.8,0.1-0.9,0.1
						c0-0.1,0.1-0.7,0.1-0.7c0.4-0.1,0.7-0.1,1-0.1c0.7,0,1.1,0.3,1.1,0.9c0,0.1,0,0.3-0.1,0.6C54.9,38.2,54.8,39.2,54.8,39.5z"/>
					<path class="st2" d="M65.8,35.7l-0.1,0.8c-0.3-0.1-0.5-0.2-0.8-0.2c-0.6,0-1,0.6-1,1.4c0,0.6,0.3,1,0.8,1
						c0.2,0,0.4-0.1,0.7-0.2l-0.1,0.9c-0.3,0.1-0.5,0.1-0.8,0.1c-0.9,0-1.4-0.6-1.4-1.6c0-1.4,0.8-2.3,1.9-2.3
						C65.3,35.5,65.8,35.6,65.8,35.7z"/>
					<path class="st2" d="M67.2,38.1c-0.1,0-0.1,0-0.2,0c-0.5,0-0.7,0.1-0.7,0.5c0,0.2,0.1,0.3,0.3,0.3
						C66.9,38.9,67.2,38.5,67.2,38.1z M67.8,39.5c-0.1,0-0.7,0-0.7,0v-0.3c-0.2,0.3-0.5,0.4-0.9,0.4c-0.5,0-0.8-0.3-0.8-0.9
						c0-0.8,0.5-1.2,1.4-1.2c0.1,0,0.2,0,0.3,0c0-0.1,0-0.1,0-0.2c0-0.2-0.1-0.3-0.5-0.3c-0.4,0-0.8,0.1-0.9,0.1
						c0-0.1,0.1-0.7,0.1-0.7c0.4-0.1,0.7-0.1,1-0.1c0.7,0,1.1,0.3,1.1,0.9c0,0.1,0,0.3-0.1,0.6C68,38.2,67.8,39.2,67.8,39.5z"/>
					<path class="st2" d="M58.4,39.4c-0.2,0.1-0.4,0.1-0.6,0.1c-0.4,0-0.7-0.3-0.7-0.7c0-0.1,0.1-0.5,0.1-0.8
						c0.1-0.3,0.3-2.1,0.3-2.1h0.8l-0.1,0.5h0.4l-0.1,0.8h-0.3c-0.1,0.6-0.2,1.4-0.2,1.4c0,0.1,0.1,0.2,0.3,0.2c0.1,0,0.1,0,0.2,0
						L58.4,39.4z"/>
					<path class="st2" d="M61,39.4c-0.3,0.1-0.5,0.1-0.8,0.1c-0.9,0-1.4-0.5-1.4-1.4c0-1.1,0.6-1.9,1.4-1.9c0.7,0,1.1,0.4,1.1,1.2
						c0,0.2,0,0.5-0.1,0.8h-1.6c-0.1,0.5,0.2,0.6,0.7,0.6c0.3,0,0.5-0.1,0.8-0.2L61,39.4z M60.5,37.6c0-0.1,0.1-0.5-0.4-0.5
						c-0.3,0-0.5,0.2-0.5,0.5H60.5z"/>
					<path class="st2" d="M55.3,37.3c0,0.4,0.2,0.7,0.6,0.9c0.3,0.1,0.4,0.2,0.4,0.3c0,0.2-0.1,0.3-0.5,0.3c-0.3,0-0.5-0.1-0.8-0.1
						c0,0-0.1,0.7-0.1,0.8c0.2,0.1,0.3,0.1,0.9,0.1c0.9,0,1.3-0.3,1.3-1c0-0.4-0.1-0.7-0.5-0.9c-0.3-0.1-0.4-0.2-0.4-0.3
						c0-0.1,0.1-0.3,0.4-0.3c0.1,0,0.4,0,0.6,0.1l0.1-0.8c-0.2,0-0.5-0.1-0.8-0.1C55.6,36.2,55.3,36.7,55.3,37.3z"/>
					<path class="st2" d="M72.2,39.5h-0.8l0.1-0.3c-0.2,0.3-0.5,0.3-0.8,0.3c-0.6,0-1-0.5-1-1.3c0-1,0.6-1.9,1.4-1.9
						c0.3,0,0.5,0.1,0.8,0.4l0.1-1.1h0.8L72.2,39.5z M71,38.7c0.4,0,0.7-0.4,0.7-1c0-0.4-0.1-0.6-0.4-0.6c-0.3,0-0.6,0.4-0.6,1
						C70.5,38.5,70.7,38.7,71,38.7z"/>
					<path class="st2" d="M68.5,36.3c-0.1,1-0.3,2-0.4,2.9L68,39.5h0.8c0.3-1.9,0.3-2.3,0.8-2.3c0.1-0.4,0.2-0.8,0.3-0.9
						c-0.3-0.1-0.5,0.1-0.8,0.5c0-0.1,0.1-0.3,0.1-0.5C69.3,36.3,68.5,36.3,68.5,36.3z"/>
					<path class="st2" d="M61.7,36.3c-0.1,1-0.3,2-0.4,2.9l-0.1,0.2h0.8c0.3-1.9,0.3-2.3,0.8-2.3c0.1-0.4,0.2-0.8,0.3-0.9
						c-0.3-0.1-0.5,0.1-0.8,0.5c0-0.1,0.1-0.3,0.1-0.5C62.5,36.3,61.7,36.3,61.7,36.3z"/>
					<g>
						<path class="st2" d="M72.6,39.2c0-0.1,0.1-0.3,0.3-0.3s0.3,0.1,0.3,0.3s-0.1,0.3-0.3,0.3C72.6,39.5,72.6,39.3,72.6,39.2z
							 M72.8,39.4c0.1,0,0.2-0.1,0.2-0.2c0-0.1-0.1-0.2-0.2-0.2s-0.2,0.1-0.2,0.2C72.6,39.3,72.7,39.4,72.8,39.4z M72.8,39.3
							L72.8,39.3l-0.1-0.2h0.1h0.1c0,0,0,0,0,0.1C72.8,39.2,72.8,39.3,72.8,39.3L72.8,39.3L72.8,39.3L72.8,39.3L72.8,39.3L72.8,39.3
							L72.8,39.3z M72.8,39.2L72.8,39.2C72.8,39.2,72.8,39.2,72.8,39.2C72.8,39.2,72.8,39.2,72.8,39.2
							C72.8,39.2,72.8,39.1,72.8,39.2C72.8,39.1,72.8,39.1,72.8,39.2L72.8,39.2L72.8,39.2z"/>
					</g>
				</g>
			</g>
		</g>
	</g>
</g>
</svg>
