<svg xmlns="http://www.w3.org/2000/svg" width="35.986" height="35.985" viewBox="0 0 35.986 35.985"><defs><style>.a{fill:red;}.b{fill:#fff;}</style></defs><g transform="translate(0 0)"><path class="a" d="M149.359,628.4A17.992,17.992,0,1,1,167.352,610.4,18.013,18.013,0,0,1,149.359,628.4Z" transform="translate(-131.366 -592.412)"/></g><g transform="translate(9.769 8.43)"><path class="b" d="M155.758,620.513c-1.287-.1-1.828-.738-2.838-1.35-.45,2.36-.98,4.64-2.235,6.2a.636.636,0,0,1-1.132-.356c-.19-3.76,1.109-6.744,1.747-9.892-1.212-2.039.145-6.144,2.7-5.133,3.145,1.244-2.723,7.584,1.216,8.375,4.112.826,5.791-7.136,3.24-9.726-3.685-3.739-10.726-.085-9.86,5.268.164,1.017,1.018,1.484.909,2.49a.9.9,0,0,1-1.28.719c-1.632-.763-2.138-2.433-2.06-4.559.146-4.059,3.647-6.9,7.159-7.294,4.441-.5,8.61,1.631,9.185,5.809.648,4.715-2,9.822-6.754,9.455Z" transform="translate(-146.159 -605.178)"/></g></svg>