<svg xmlns="http://www.w3.org/2000/svg" width="133.651" height="21.52" viewBox="0 0 133.651 21.52"><defs><style>.a{fill:#ed1b24;}.b{fill:#ffc8c8;}</style></defs><g transform="translate(0 0)"><path class="a" d="M3.333,14.5A10.975,10.975,0,0,0,6.6,16.453a9.714,9.714,0,0,0,3.529.736,5.876,5.876,0,0,0,3.053-.692,2.066,2.066,0,0,0,1.147-1.819,1.444,1.444,0,0,0-.52-1.168,3.461,3.461,0,0,0-1.689-.606l-2.035-.26a15.631,15.631,0,0,1-6.732-2.1A4.688,4.688,0,0,1,1.212,6.5,5.486,5.486,0,0,1,3.745,1.754,11.866,11.866,0,0,1,10.607,0,19.477,19.477,0,0,1,16,.714,13.4,13.4,0,0,1,20.3,2.771L16.885,6.192a7.307,7.307,0,0,0-2.447-1.515,8.035,8.035,0,0,0-2.923-.562,4.566,4.566,0,0,0-2.577.65,1.956,1.956,0,0,0-.974,1.689,1.327,1.327,0,0,0,.216.758,1.7,1.7,0,0,0,.714.562,6.018,6.018,0,0,0,1.342.412q.843.172,2.1.3,1.6.172,2.663.3a12.708,12.708,0,0,1,1.775.324,6.688,6.688,0,0,1,1.19.432,9.236,9.236,0,0,1,1,.584,4.335,4.335,0,0,1,1.494,1.841A6.146,6.146,0,0,1,21,14.548a5.918,5.918,0,0,1-.714,2.9,6.364,6.364,0,0,1-2.057,2.209A10.14,10.14,0,0,1,15,21.044a17.239,17.239,0,0,1-4.221.476,21.157,21.157,0,0,1-2.945-.194A15.149,15.149,0,0,1,5.152,20.7,13.442,13.442,0,0,1,2.6,19.53,25.008,25.008,0,0,1,0,17.752Z" transform="translate(0 0)"/><path class="a" d="M152.3,2.146h7.056V4.873a20.8,20.8,0,0,1,4.329-2.381,11.1,11.1,0,0,1,3.9-.692q7.145,0,7.144,8.745v11.82h-7.837a25.123,25.123,0,0,0,.67-3.939,48.761,48.761,0,0,0,.238-4.936l-.044-.736q-.086-5.889-3.9-5.888a4.692,4.692,0,0,0-2.209.628,8.627,8.627,0,0,0-2.295,1.883V22.365H152.3V2.146Z" transform="translate(-126.584 -1.496)"/><path class="a" d="M330.835,21.1a5.964,5.964,0,0,0,.282-1.018c.044-.274.093-.67.152-1.19a16.458,16.458,0,0,1-1.819,1.19,12.191,12.191,0,0,1-1.645.758,7.613,7.613,0,0,1-1.667.412,15.125,15.125,0,0,1-1.883.108,10.112,10.112,0,0,1-6.148-1.645,5.394,5.394,0,0,1-2.209-4.589,5.712,5.712,0,0,1,2.447-4.892,11.519,11.519,0,0,1,6.862-1.775c.461,0,.895.015,1.3.044s.838.073,1.3.13.981.145,1.559.26,1.283.26,2.121.432a4.784,4.784,0,0,0-1.342-3.7,5.043,5.043,0,0,0-3.551-1.234,7.115,7.115,0,0,0-4.416,1.6l-1.342,1-3.291-3.247a23.549,23.549,0,0,1,5.13-2.6A16.572,16.572,0,0,1,328.15.28a18.99,18.99,0,0,1,4.221.432,8.561,8.561,0,0,1,3.2,1.407,6.479,6.479,0,0,1,2.035,2.489,8.479,8.479,0,0,1,.714,3.637V21.1h-7.489Zm.564-8.357a11.385,11.385,0,0,0-1.971-.866,6.69,6.69,0,0,0-1.971-.26,5.578,5.578,0,0,0-3.269.866,2.64,2.64,0,0,0-1.234,2.251,2.746,2.746,0,0,0,1,2.165,3.626,3.626,0,0,0,2.469.866,5.58,5.58,0,0,0,1.927-.324,4.778,4.778,0,0,0,1.58-.952,4.431,4.431,0,0,0,1.082-1.515,5.067,5.067,0,0,0,.39-2.057v-.174Z" transform="translate(-262.559 -0.233)"/><path class="a" d="M673.645,21.076a5.964,5.964,0,0,0,.282-1.018c.044-.274.093-.67.152-1.19a16.461,16.461,0,0,1-1.819,1.19,12.189,12.189,0,0,1-1.645.758,7.612,7.612,0,0,1-1.667.412,15.126,15.126,0,0,1-1.883.108,10.112,10.112,0,0,1-6.148-1.645A5.394,5.394,0,0,1,658.71,15.1a5.712,5.712,0,0,1,2.447-4.892,11.52,11.52,0,0,1,6.862-1.775c.461,0,.895.015,1.3.044s.838.073,1.3.13.981.145,1.558.26,1.283.26,2.121.432a4.783,4.783,0,0,0-1.342-3.7A5.043,5.043,0,0,0,669.4,4.367a7.115,7.115,0,0,0-4.416,1.6l-1.342,1-3.291-3.247a23.48,23.48,0,0,1,5.131-2.6A16.572,16.572,0,0,1,670.962.25a18.989,18.989,0,0,1,4.221.432,8.561,8.561,0,0,1,3.2,1.407,6.478,6.478,0,0,1,2.035,2.489,8.479,8.479,0,0,1,.714,3.637V21.073h-7.49Zm.562-8.357a11.385,11.385,0,0,0-1.971-.866,6.69,6.69,0,0,0-1.97-.26A5.578,5.578,0,0,0,667,12.46a2.64,2.64,0,0,0-1.234,2.251,2.746,2.746,0,0,0,1,2.165,3.625,3.625,0,0,0,2.469.866,5.58,5.58,0,0,0,1.927-.324,4.778,4.778,0,0,0,1.58-.952,4.431,4.431,0,0,0,1.082-1.515,5.066,5.066,0,0,0,.39-2.057Z" transform="translate(-547.484 -0.208)"/></g><g transform="translate(81.156 0.65)"><path class="a" d="M485.393,18.787l4.157-4.676L480.89,3.85h7.316l4.979,6.278,3.507,3.593-3.767,3.939-2.6,3.161-2.685,3.247H480.63Z" transform="translate(-480.63 -3.85)"/><path class="b" d="M547.931,18.787l-4.157-4.676L552.433,3.85h-7.316l-4.979,6.278-3.507,3.593,3.767,3.939,2.6,3.161,2.685,3.247h7.014Z" transform="translate(-527.174 -3.85)"/></g></svg>