<svg xmlns="http://www.w3.org/2000/svg" width="36.046" height="36.046" viewBox="0 0 36.046 36.046"><defs><style>.a{fill:#3cf;}.b,.c{fill:#fff;}.c{fill-rule:evenodd;}</style></defs><g transform="translate(0 0)"><path class="a" d="M67.807,498.343A18.023,18.023,0,1,1,85.83,480.32,18.043,18.043,0,0,1,67.807,498.343Z" transform="translate(-49.784 -462.297)"/></g><g transform="translate(7.453 9.372)"><path class="b" d="M82,478.562a8.619,8.619,0,0,1-2.122.606c.342-.057.846-.676,1.047-.926a3.907,3.907,0,0,0,.707-1.287c.018-.036.032-.083,0-.11a.119.119,0,0,0-.112.009,10.837,10.837,0,0,1-2.521.965.168.168,0,0,1-.174-.046,2.041,2.041,0,0,0-.221-.225,4.462,4.462,0,0,0-1.221-.748,4.251,4.251,0,0,0-1.873-.3,4.476,4.476,0,0,0-1.776.5A4.587,4.587,0,0,0,72.3,478.17a4.414,4.414,0,0,0-.856,1.714,4.653,4.653,0,0,0-.046,1.81c.014.1.005.115-.087.1a13.461,13.461,0,0,1-8.661-4.409c-.1-.115-.156-.115-.239.009a4.392,4.392,0,0,0,.749,5.189c.17.161.344.322.532.468a4.4,4.4,0,0,1-1.671-.468c-.1-.064-.152-.027-.16.087a2.617,2.617,0,0,0,.027.5,4.441,4.441,0,0,0,2.737,3.54,2.571,2.571,0,0,0,.555.17,4.927,4.927,0,0,1-1.639.051c-.12-.023-.165.037-.12.152a4.611,4.611,0,0,0,3.444,2.884c.157.027.312.027.469.064-.009.014-.018.014-.028.028A5.458,5.458,0,0,1,64.95,491.3a8.427,8.427,0,0,1-3.573.457c-.192-.028-.232-.026-.285,0s-.007.079.055.128c.243.161.491.3.744.441a11.8,11.8,0,0,0,2.388.956A12.719,12.719,0,0,0,76.628,490.4c2.531-2.514,3.417-5.982,3.417-9.453,0-.135.16-.211.256-.282a8.336,8.336,0,0,0,1.673-1.748.507.507,0,0,0,.1-.335v-.018C82.077,478.508,82.084,478.524,82,478.562Z" transform="translate(-61.07 -476.489)"/><g transform="translate(6.239 17.229)"><path class="c" d="M70.518,502.578Z" transform="translate(-70.518 -502.578)"/></g><g transform="translate(6.079 17.229)"><path class="c" d="M70.435,502.578c-.028,0-.347,0,0,0Z" transform="translate(-70.275 -502.578)"/></g><g transform="translate(6.946 17.232)"><path class="c" d="M71.589,502.6c0-.035.372,0,0,0C71.589,502.579,71.635,502.6,71.589,502.6Z" transform="translate(-71.589 -502.582)"/></g><g transform="translate(14.29 0.026)"><path class="c" d="M82.8,476.528a.076.076,0,0,1-.087,0Z" transform="translate(-82.709 -476.528)"/></g></g></svg>